<svg xmlns="http://www.w3.org/2000/svg" viewBox="0 0 34 34" width="34" height="34">
	<style>
		tspan { white-space:pre }
		.shp0 { fill: #95e1d3 } 
	</style>
	<g id="service">
		<g id="1">
			<path id="ALARM" class="shp0" d="M31.74 11.5C30.16 7.81 27.19 4.84 23.5 3.26C24.5 2.47 25.75 2 27.13 2C30.37 2 33 4.63 33 7.87C33 9.24 32.53 10.5 31.74 11.5ZM31.5 18C31.5 21.85 29.99 25.34 27.54 27.94L29.57 29.97C29.83 30.24 30 30.61 30 31.02C30 31.84 29.34 32.5 28.52 32.5C28.11 32.5 27.74 32.33 27.47 32.07L25.29 29.89C22.94 31.53 20.08 32.5 17 32.5C13.92 32.5 11.07 31.53 8.72 29.9L6.56 32.06C6.29 32.33 5.91 32.5 5.5 32.5C4.67 32.5 4 31.83 4 31C4 30.59 4.17 30.21 4.44 29.94L6.45 27.93C4.01 25.33 2.5 21.85 2.5 18C2.5 9.99 8.99 3.5 17 3.5C25.01 3.5 31.5 9.99 31.5 18ZM17 6.5C10.65 6.5 5.5 11.65 5.5 18C5.5 24.35 10.65 29.5 17 29.5C23.35 29.5 28.5 24.35 28.5 18C28.5 11.65 23.35 6.5 17 6.5ZM23 19.5L17 19.5C16.17 19.5 15.5 18.83 15.5 18L15.5 10C15.5 9.17 16.17 8.5 17 8.5C17.83 8.5 18.5 9.17 18.5 10L18.5 16.5L23 16.5C23.83 16.5 24.5 17.17 24.5 18C24.5 18.83 23.83 19.5 23 19.5ZM2.29 11.71C1.48 10.68 1 9.4 1 8C1 4.69 3.69 2 7 2C8.4 2 9.69 2.48 10.71 3.29C6.93 4.9 3.9 7.93 2.29 11.71Z" />
		</g>
	</g>
</svg>